<?xml version="1.0" standalone="no"?>
<!DOCTYPE svg PUBLIC "-//W3C//DTD SVG 20010904//EN"
 "http://www.w3.org/TR/2001/REC-SVG-20010904/DTD/svg10.dtd">
<svg version="1.0" xmlns="http://www.w3.org/2000/svg"
 width="225.000000pt" height="225.000000pt" viewBox="0 0 225.000000 225.000000"
 preserveAspectRatio="xMidYMid meet">
<metadata>
Created by potrace 1.11, written by Peter Selinger 2001-2013
</metadata>
<g transform="translate(0.000000,225.000000) scale(0.100000,-0.100000)"
fill="#000000" stroke="none">
<path d="M596 2235 c-46 -16 -99 -65 -121 -111 -8 -18 -22 -69 -31 -115 -17
-93 -30 -123 -68 -158 -32 -30 -32 -39 3 -124 l27 -68 46 43 c50 47 87 113
113 200 19 68 36 85 57 60 15 -17 191 -470 437 -1132 156 -416 165 -439 221
-524 129 -196 304 -284 507 -256 98 13 167 46 244 118 106 98 142 167 160 302
12 101 -1 149 -95 338 -86 175 -96 215 -72 310 19 78 41 104 110 129 57 21 76
44 60 71 -8 11 -116 49 -330 116 -175 54 -338 103 -360 109 -88 21 -97 -16
-24 -98 27 -32 54 -71 59 -89 6 -17 15 -94 20 -171 7 -104 16 -158 35 -212 27
-79 100 -228 150 -307 67 -108 74 -160 27 -207 -33 -33 -50 -35 -91 -14 -28
14 -60 60 -60 85 0 5 -47 112 -106 237 l-105 227 21 28 c31 42 36 80 12 102
-19 16 -102 36 -102 23 0 -3 14 -35 30 -72 17 -37 30 -71 30 -76 0 -16 -64
-49 -97 -49 -43 0 -83 47 -83 100 0 30 6 43 31 64 17 14 36 26 42 26 37 1 38
17 4 91 l-34 75 24 34 c26 39 30 82 8 100 -8 7 -36 15 -61 18 -46 5 -47 5 -77
71 -17 36 -31 67 -33 69 -1 2 -17 -6 -35 -17 -37 -23 -79 -27 -110 -11 -23 13
-49 61 -49 93 0 31 43 75 84 86 19 5 30 14 28 22 -2 8 -41 91 -86 184 -72 148
-89 176 -135 217 -34 31 -71 53 -104 63 -61 18 -71 18 -121 0z m628 -847 c36
-79 35 -88 -15 -114 -40 -20 -63 -18 -98 12 -39 32 -50 84 -26 120 16 24 65
53 93 54 7 0 28 -33 46 -72z m627 -311 c66 -51 35 -151 -48 -151 -72 0 -109
89 -58 139 27 27 79 33 106 12z m126 -279 c51 -48 15 -138 -56 -138 -47 0 -81
32 -81 79 0 72 84 109 137 59z"/>
<path d="M37 1740 c-15 -17 -27 -38 -27 -46 0 -18 71 -69 117 -85 32 -10 146
-9 157 2 3 2 -5 37 -17 77 l-21 72 -62 0 c-34 0 -75 3 -91 6 -25 5 -34 1 -56
-26z"/>
<path d="M1060 1749 c0 -8 14 -43 31 -79 l31 -65 24 28 c28 33 31 77 7 100
-25 22 -93 34 -93 16z"/>
</g>
</svg>
